<svg width="44" height="58" viewBox="0 0 44 58" fill="none" xmlns="http://www.w3.org/2000/svg">
  <g filter="url(#filter0_d_1_1)">
    <path d="M22 50C22 50 38 35.8 38 22C38 13.2 30.8 6 22 6S6 13.2 6 22C6 35.8 22 50 22 50Z" fill="#3B82F6"/>
    <path d="M22 50C22 50 38 35.8 38 22C38 13.2 30.8 6 22 6S6 13.2 6 22C6 35.8 22 50 22 50Z" stroke="white" stroke-width="2"/>
  </g>
  <circle cx="22" cy="22" r="8" fill="white"/>
  <path d="M16 22L20 26L28 18" stroke="#3B82F6" stroke-width="2" stroke-linecap="round" stroke-linejoin="round"/>
  <text x="22" y="28" text-anchor="middle" fill="#3B82F6" font-family="Arial" font-size="12">🏠</text>
  <defs>
    <filter id="filter0_d_1_1" x="2" y="4" width="40" height="50" filterUnits="userSpaceOnUse" color-interpolation-filters="sRGB">
      <feFlood flood-opacity="0" result="BackgroundImageFix"/>
      <feColorMatrix in="SourceAlpha" type="matrix" values="0 0 0 0 0 0 0 0 0 0 0 0 0 0 0 0 0 0 127 0" result="hardAlpha"/>
      <feOffset dy="2"/>
      <feGaussianBlur stdDeviation="2"/>
      <feComposite in2="hardAlpha" operator="out"/>
      <feColorMatrix type="matrix" values="0 0 0 0 0 0 0 0 0 0 0 0 0 0 0 0 0 0 0.25 0"/>
      <feBlend mode="normal" in2="BackgroundImageFix" result="effect1_dropShadow_1_1"/>
      <feBlend mode="normal" in="SourceGraphic" in2="effect1_dropShadow_1_1" result="shape"/>
    </filter>
  </defs>
</svg>